<svg version="1.2" baseProfile="tiny-ps" xmlns="http://www.w3.org/2000/svg" viewBox="0 0 1200 228" width="1200" height="228">
	<title>Novo Projeto</title>
	<style>
		tspan { white-space:pre }
	</style>
	<path id="Noodle Account " fill="#4285f4" aria-label="Noodle Account"  d="M135.22 104.17L135.22 166L122.47 166L122.47 66.75L137.99 66.75L186.23 143.96L186.79 143.96L186.23 124.83L186.23 66.75L198.99 66.75L198.99 166L185.68 166L135.22 85.04L134.67 85.04L135.22 104.17ZM402.49 156.57Q411.91 156.57 417.87 149.78Q424.11 142.99 424.11 132.04Q424.11 121.36 417.87 114.43Q411.78 107.5 402.49 107.5Q393.34 107.5 387.1 114.43Q380.86 121.36 380.86 132.04Q380.86 142.85 387.1 149.64Q393.34 156.57 402.49 156.57ZM400.41 168.22Q387.1 168.22 377.54 157.68Q368.11 147.01 368.11 132.04Q368.11 117.07 377.54 106.39Q387.1 95.86 400.41 95.86Q407.89 95.86 413.99 99.04Q420.23 102.23 423.56 107.5L424.11 107.5L423.56 98.07L423.56 66.75L436.31 66.75L436.31 166L424.11 166L424.11 156.57L423.56 156.57Q420.23 161.84 413.99 165.03Q407.89 168.22 400.41 168.22Z" />
	<path id="Noodle Account " fill="#db4437" aria-label="Noodle Account"  d="M212.85 132.04Q212.85 116.37 222.69 106.11Q232.67 95.86 247.78 95.86Q262.89 95.86 272.74 106.11Q282.72 116.37 282.72 132.04Q282.72 147.84 272.74 157.96Q262.89 168.22 247.78 168.22Q232.67 168.22 222.69 157.96Q212.85 147.7 212.85 132.04ZM225.6 132.04Q225.6 142.99 231.98 149.78Q238.36 156.57 247.78 156.57Q257.21 156.57 263.59 149.78Q269.96 142.99 269.96 132.04Q269.96 121.22 263.59 114.43Q257.07 107.5 247.78 107.5Q238.5 107.5 231.98 114.43Q225.6 121.22 225.6 132.04ZM509.92 168.22Q494.95 168.22 485.25 157.96Q475.54 147.7 475.54 132.04Q475.54 116.51 484.97 106.25Q494.4 95.86 509.09 95.86Q524.2 95.86 533.07 105.7Q542.08 115.4 542.08 133.01L541.94 134.39L488.57 134.39Q488.85 144.37 495.23 150.47Q501.6 156.57 510.48 156.57Q522.67 156.57 529.61 144.37L540.97 149.92Q536.4 158.51 528.22 163.37Q520.18 168.22 509.92 168.22ZM489.54 123.86L528.5 123.86Q527.94 116.79 522.67 112.21Q517.55 107.5 508.81 107.5Q501.6 107.5 496.34 111.94Q491.21 116.37 489.54 123.86Z" />
	<path id="Noodle Account " fill="#f4b400" aria-label="Noodle Account"  d="M290.48 132.04Q290.48 116.37 300.32 106.11Q310.3 95.86 325.41 95.86Q340.52 95.86 350.36 106.11Q360.35 116.37 360.35 132.04Q360.35 147.84 350.36 157.96Q340.52 168.22 325.41 168.22Q310.3 168.22 300.32 157.96Q290.48 147.7 290.48 132.04ZM303.23 132.04Q303.23 142.99 309.61 149.78Q315.99 156.57 325.41 156.57Q334.84 156.57 341.22 149.78Q347.59 142.99 347.59 132.04Q347.59 121.22 341.22 114.43Q334.7 107.5 325.41 107.5Q316.12 107.5 309.61 114.43Q303.23 121.22 303.23 132.04Z" />
	<path id="Noodle Account " fill="#0f9d58" aria-label="Noodle Account"  d="M451.84 66.75L464.59 66.75L464.59 166L451.84 166L451.84 66.75Z" />
	<path id="Noodle Account " fill="#000000" aria-label="Noodle Account"  d="" />
	<path id="Noodle Account " fill="#5f6368" aria-label="Noodle Account"  d="M618.88 82.41L618.33 82.41L602.11 127.19L635.1 127.19L618.88 82.41ZM597.81 139.11L588.11 166L573.97 166L611.39 66.75L625.81 66.75L663.24 166L649.1 166L639.53 139.11L597.81 139.11ZM701.64 168.22Q686.53 168.22 676.55 157.96Q666.7 147.42 666.7 132.04Q666.7 116.37 676.55 106.11Q686.53 95.86 701.64 95.86Q712.04 95.86 719.8 101.12Q727.56 106.25 731.44 115.4L719.8 120.25Q714.39 107.5 700.81 107.5Q692.07 107.5 685.7 114.57Q679.46 121.64 679.46 132.04Q679.46 142.43 685.7 149.5Q692.07 156.57 700.81 156.57Q714.81 156.57 720.49 143.82L731.86 148.67Q728.12 157.82 720.08 163.09Q712.17 168.22 701.64 168.22ZM773.31 168.22Q758.2 168.22 748.22 157.96Q738.37 147.42 738.37 132.04Q738.37 116.37 748.22 106.11Q758.2 95.86 773.31 95.86Q783.7 95.86 791.47 101.12Q799.23 106.25 803.11 115.4L791.47 120.25Q786.06 107.5 772.48 107.5Q763.74 107.5 757.37 114.57Q751.13 121.64 751.13 132.04Q751.13 142.43 757.37 149.5Q763.74 156.57 772.48 156.57Q786.48 156.57 792.16 143.82L803.53 148.67Q799.78 157.82 791.74 163.09Q783.84 168.22 773.31 168.22ZM810.04 132.04Q810.04 116.37 819.88 106.11Q829.87 95.86 844.98 95.86Q860.09 95.86 869.93 106.11Q879.91 116.37 879.91 132.04Q879.91 147.84 869.93 157.96Q860.09 168.22 844.98 168.22Q829.87 168.22 819.88 157.96Q810.04 147.7 810.04 132.04ZM822.8 132.04Q822.8 142.99 829.17 149.78Q835.55 156.57 844.98 156.57Q854.4 156.57 860.78 149.78Q867.16 142.99 867.16 132.04Q867.16 121.22 860.78 114.43Q854.26 107.5 844.98 107.5Q835.69 107.5 829.17 114.43Q822.8 121.22 822.8 132.04ZM950.47 98.07L950.47 166L938.27 166L938.27 156.57L937.72 156.57Q934.8 161.56 928.7 164.89Q922.74 168.22 916.23 168.22Q903.75 168.22 896.96 161.15Q890.31 153.94 890.31 140.77L890.31 98.07L903.06 98.07L903.06 139.94Q903.48 156.57 919.83 156.57Q927.46 156.57 932.59 150.47Q937.72 144.24 937.72 135.64L937.72 98.07L950.47 98.07ZM965.99 166L965.99 98.07L978.19 98.07L978.19 107.5L978.75 107.5Q981.66 102.51 987.62 99.18Q993.72 95.86 1000.23 95.86Q1012.71 95.86 1019.36 103.06Q1026.16 110.13 1026.16 123.3L1026.16 166L1013.4 166L1013.4 124.14Q1012.99 107.5 996.63 107.5Q989.01 107.5 983.88 113.74Q978.75 119.84 978.75 128.43L978.75 166L965.99 166ZM1064.56 167.11Q1056.24 167.11 1050.69 161.98Q1045.29 156.85 1045.15 147.7L1045.15 109.72L1033.23 109.72L1033.23 98.07L1045.15 98.07L1045.15 77.28L1057.9 77.28L1057.9 98.07L1074.54 98.07L1074.54 109.72L1057.9 109.72L1057.9 143.54Q1057.9 150.34 1060.54 152.83Q1063.17 155.19 1066.5 155.19Q1068.02 155.19 1069.41 154.91Q1070.93 154.49 1072.18 153.94L1076.2 165.31Q1071.21 167.11 1064.56 167.11Z" />
</svg>