<svg version="1.2" baseProfile="tiny-ps" xmlns="http://www.w3.org/2000/svg" viewBox="0 0 421 103" width="421" height="103">
	<title>Novo Projeto</title>
	<style>
		tspan { white-space:pre }
	</style>
	<path id="Noodle " fill="#4285f4" aria-label="Noodle"  d="M13.22 38.17L13.22 100L0.47 100L0.47 0.75L15.99 0.75L64.23 77.96L64.79 77.96L64.23 58.83L64.23 0.75L76.99 0.75L76.99 100L63.68 100L13.22 19.04L12.67 19.04L13.22 38.17ZM280.49 90.57Q289.91 90.57 295.87 83.78Q302.11 76.99 302.11 66.04Q302.11 55.36 295.87 48.43Q289.78 41.5 280.49 41.5Q271.34 41.5 265.1 48.43Q258.86 55.36 258.86 66.04Q258.86 76.85 265.1 83.64Q271.34 90.57 280.49 90.57ZM278.41 102.22Q265.1 102.22 255.54 91.68Q246.11 81.01 246.11 66.04Q246.11 51.07 255.54 40.39Q265.1 29.86 278.41 29.86Q285.89 29.86 291.99 33.04Q298.23 36.23 301.56 41.5L302.11 41.5L301.56 32.07L301.56 0.75L314.31 0.75L314.31 100L302.11 100L302.11 90.57L301.56 90.57Q298.23 95.84 291.99 99.03Q285.89 102.22 278.41 102.22Z" />
	<path id="Noodle " fill="#db4437" aria-label="Noodle"  d="M90.85 66.04Q90.85 50.37 100.69 40.11Q110.67 29.86 125.78 29.86Q140.89 29.86 150.74 40.11Q160.72 50.37 160.72 66.04Q160.72 81.84 150.74 91.96Q140.89 102.22 125.78 102.22Q110.67 102.22 100.69 91.96Q90.85 81.7 90.85 66.04ZM103.6 66.04Q103.6 76.99 109.98 83.78Q116.36 90.57 125.78 90.57Q135.21 90.57 141.59 83.78Q147.96 76.99 147.96 66.04Q147.96 55.22 141.59 48.43Q135.07 41.5 125.78 41.5Q116.5 41.5 109.98 48.43Q103.6 55.22 103.6 66.04ZM387.92 102.22Q372.95 102.22 363.25 91.96Q353.54 81.7 353.54 66.04Q353.54 50.51 362.97 40.25Q372.4 29.86 387.09 29.86Q402.2 29.86 411.07 39.7Q420.08 49.4 420.08 67.01L419.94 68.39L366.57 68.39Q366.85 78.37 373.23 84.47Q379.6 90.57 388.48 90.57Q400.67 90.57 407.61 78.37L418.97 83.92Q414.4 92.51 406.22 97.37Q398.18 102.22 387.92 102.22ZM367.54 57.86L406.5 57.86Q405.94 50.79 400.67 46.21Q395.55 41.5 386.81 41.5Q379.6 41.5 374.34 45.94Q369.21 50.37 367.54 57.86Z" />
	<path id="Noodle " fill="#f4b400" aria-label="Noodle"  d="M168.48 66.04Q168.48 50.37 178.32 40.11Q188.3 29.86 203.41 29.86Q218.52 29.86 228.36 40.11Q238.35 50.37 238.35 66.04Q238.35 81.84 228.36 91.96Q218.52 102.22 203.41 102.22Q188.3 102.22 178.32 91.96Q168.48 81.7 168.48 66.04ZM181.23 66.04Q181.23 76.99 187.61 83.78Q193.99 90.57 203.41 90.57Q212.84 90.57 219.22 83.78Q225.59 76.99 225.59 66.04Q225.59 55.22 219.22 48.43Q212.7 41.5 203.41 41.5Q194.12 41.5 187.61 48.43Q181.23 55.22 181.23 66.04Z" />
	<path id="Noodle " fill="#0f9d58" aria-label="Noodle"  d="M329.84 0.75L342.59 0.75L342.59 100L329.84 100L329.84 0.75Z" />
</svg>